<svg xmlns="http://www.w3.org/2000/svg" width="19.999" height="42.656" viewBox="0 0 19.999 42.656">
  <path id="Facebook-icon" d="M371.381,908.321c0-.12.21-6.064-.067-6.55-.058-.1-4.746-.406-5.705-.447-6.472-.273-6.357.668-7.332,1.533-1.939,1.721-1.569,6.427-1.61,8.784-.022,1.3,0,2.219-.012,3.649-1.778.036-4.515-.029-5.2-.014-.008,2.563.034,4.206,0,6.949,2.033,0,3.2,0,5.227-.011.03,6.6-.134,14.15-.056,21.689,3.181.045,5.149.008,7.838.03-.032-4.124-.024-19.717-.006-21.683,2.183-.034,3.636.023,6.018-.032.055-2.691.01-4.636-.012-6.9a55.309,55.309,0,0,1-6-.117c.026-3.229.012-5.883.027-6.731C364.5,908.247,368.767,908.386,371.381,908.321Z" transform="translate(-351.457 -901.276)"/>
</svg>
