<?xml version="1.0" encoding="UTF-8"?>
<svg id="Layer_2" data-name="Layer 2" xmlns="http://www.w3.org/2000/svg" viewBox="0 0 31.36 35.99">
  <defs>
    <style>
      .cls-1 {
        stroke-width: 0px;
      }
    </style>
  </defs>
  <g id="Layer_2-2" data-name="Layer 2">
    <g id="Layer_1-2" data-name="Layer 1-2">
      <path id="tiktok-svgrepo-com" class="cls-1" d="m29.56,8.43c-3.69-.79-6.43-3.88-6.78-7.64v-.79h-6.2v24.6c-.02,2.88-2.38,5.2-5.26,5.18-1.61-.02-3.12-.77-4.09-2.04h0c-1.73-2.3-1.26-5.58,1.04-7.31,1.34-1.01,3.09-1.31,4.69-.81v-6.3C6.72,12.46.97,16.82.11,23.04c-.86,6.23,3.49,11.97,9.72,12.84,6.23.86,11.97-3.49,12.84-9.72.07-.52.11-1.04.11-1.56v-12.57c2.51,1.79,5.51,2.75,8.59,2.75v-6.16c-.61,0-1.21-.06-1.81-.19h0Z"/>
    </g>
  </g>
</svg>