<svg xmlns="http://www.w3.org/2000/svg" width="55.117" height="42.656" viewBox="0 0 55.117 42.656">
  <path id="Twitter-icon" d="M1157.629,916.2a26.328,26.328,0,0,1-5.413,4.064,9.367,9.367,0,0,0-7.346-4.768,11.3,11.3,0,0,0-12.284,13.632.243.243,0,0,1-.259.3c-3.746-.348-7.56-.75-10.973-2.322-2.079-.957-5.242-1.545-11.147-7.893-1.784,7.9,1.3,9.673,4.416,13.133a.1.1,0,0,1-.084.167,16.379,16.379,0,0,1-6.281-2.04,13.2,13.2,0,0,0,9.285,9.794.126.126,0,0,1,0,.248c-1.621.248-4.931.443-6.786-.188,3.59,3.419,7.436,6.976,12.231,8.145a.216.216,0,0,1,.1.37,16.961,16.961,0,0,1-8.587,3.74,49.808,49.808,0,0,1-9.884.262,17.253,17.253,0,0,0,6.112,2.913c25.32,7.87,44.392-4.854,43.375-27.92a.136.136,0,0,1,.076-.128c3.077-1.506,3.98-3.835,5.554-6.909a20.287,20.287,0,0,0-5.773,1.539.094.094,0,0,1-.106-.151C1154.881,921.158,1157.061,918.639,1157.629,916.2Z" transform="translate(-1104.61 -915.435)"/>
</svg>
