<?xml version="1.0" encoding="UTF-8"?>
<svg id="Layer_2" data-name="Layer 2" xmlns="http://www.w3.org/2000/svg" viewBox="0 0 216.19 155.15">
  <defs>
    <style>
      .cls-1 {
        fill: #f4f4f4;
        font-family: MostraNuova-Heavy, 'Mostra Nuova';
        font-size: 48px;
        font-weight: 800;
      }

      .cls-2 {
        letter-spacing: -.02em;
      }

      .cls-3 {
        fill: none;
        stroke: #f4f4f4;
        stroke-miterlimit: 10;
        stroke-width: 4px;
      }
    </style>
  </defs>
  <g id="Layer_1-2" data-name="Layer 1">
    <g>
      <path class="cls-3" d="m82.8,1.59l-9.7,7.4c-30.9,23.5-36.6,58.7-14.7,91.2l5.6,8.3"/>
      <path class="cls-3" d="m82.5,4.19l6.5,10.2c20.8,32.6,14.1,67.7-17.4,90.8l-8,5.9"/>
      <circle class="cls-3" cx="75.4" cy="36.19" r="6"/>
      <circle class="cls-3" cx="72.2" cy="57.29" r="6"/>
      <circle class="cls-3" cx="69.4" cy="78.79" r="6"/>
      <path class="cls-3" d="m108.2,17.79l-2.4,12c-7.7,38.1,11.4,68.3,49.3,78.1l9.7,2.5"/>
      <path class="cls-3" d="m109.6,19.99l11.7,3.4c37.2,10.7,55.4,41.5,47,79.6l-2.1,9.7"/>
      <circle class="cls-3" cx="125.6" cy="48.69" r="6"/>
      <circle class="cls-3" cx="137.1" cy="66.69" r="6"/>
      <circle class="cls-3" cx="149.3" cy="84.59" r="6"/>
      <text class="cls-1" transform="translate(0 143.63)"><tspan x="0" y="0">Bean </tspan><tspan class="cls-2" x="118.99" y="0">P</tspan><tspan x="146.3" y="0">ods</tspan></text>
    </g>
  </g>
</svg>